<svg width="20" height="20" viewBox="0 0 20 20" fill="none" xmlns="http://www.w3.org/2000/svg">
<mask id="mask0_3101_298" style="mask-type:alpha" maskUnits="userSpaceOnUse" x="0" y="0" width="20" height="20">
<path d="M9.15527e-05 0H19.2955V20H9.15527e-05V0Z" fill="white"/>
</mask>
<g mask="url(#mask0_3101_298)">
<path fill-rule="evenodd" clip-rule="evenodd" d="M17.9385 10.0388C17.9385 10.1247 17.8661 10.1971 17.7801 10.1971H17.5937H16.2366H3.05903H1.70192H1.51554C1.42959 10.1971 1.35721 10.1247 1.35721 10.0388V7.52901C1.35721 7.44215 1.42959 7.36977 1.51554 7.36977H8.96882H14.5312H17.7801C17.8661 7.36977 17.9385 7.44215 17.9385 7.52901V10.0388ZM16.2366 18.5732C16.2366 18.6094 16.2032 18.6429 16.167 18.6429H10.3259V11.5542H16.2366V18.5732ZM8.96882 18.6429H3.1287C3.0916 18.6429 3.05903 18.6094 3.05903 18.5732V11.5542H8.96882V18.6429ZM6.67891 1.35684C7.91117 1.35684 8.91273 2.3593 8.91273 3.59065V5.82447H6.67891C5.44756 5.82447 4.4451 4.82201 4.4451 3.59065C4.4451 2.3593 5.44756 1.35684 6.67891 1.35684ZM10.3259 4.9342C10.3259 3.85122 11.2072 2.9709 12.2901 2.9709C13.374 2.9709 14.2543 3.85122 14.2543 4.9342C14.2543 5.335 14.1295 5.70323 13.9214 6.01265H10.3259V4.9342ZM17.7801 6.01265H15.4187C15.5382 5.67428 15.6115 5.31419 15.6115 4.9342C15.6115 3.103 14.1213 1.61288 12.2901 1.61288C11.4361 1.61288 10.6643 1.94673 10.0753 2.47872C9.60395 1.0447 8.26855 -0.000274658 6.67891 -0.000274658C4.69933 -0.000274658 3.08798 1.61107 3.08798 3.59065C3.08798 4.53068 3.46074 5.37662 4.05606 6.01265H1.51554C0.679554 6.01265 9.15527e-05 6.69302 9.15527e-05 7.52901V10.0388C9.15527e-05 10.8747 0.679554 11.5542 1.51554 11.5542H1.70192V18.5732C1.70192 19.3603 2.34157 20 3.1287 20H16.167C16.9541 20 17.5937 19.3603 17.5937 18.5732V11.5542H17.7801C18.6161 11.5542 19.2956 10.8747 19.2956 10.0388V7.52901C19.2956 6.69302 18.6161 6.01265 17.7801 6.01265Z" fill="white"/>
</g>
</svg>
