<svg width="12" height="8" viewBox="0 0 12 8" fill="none" xmlns="http://www.w3.org/2000/svg">
<path d="M5.34107 6.7475L1.14457 1.95075C0.649324 1.38638 1.05182 0.5 1.80345 0.5H10.1964C10.3647 0.499856 10.5294 0.548202 10.6708 0.639248C10.8122 0.730295 10.9244 0.860182 10.994 1.01336C11.0635 1.16653 11.0874 1.3365 11.0628 1.50291C11.0382 1.66931 10.9662 1.8251 10.8553 1.95163L6.65882 6.74663C6.57669 6.84061 6.47541 6.91593 6.36177 6.96755C6.24813 7.01916 6.12476 7.04586 5.99995 7.04586C5.87514 7.04586 5.75177 7.01916 5.63813 6.96755C5.52449 6.91593 5.4232 6.84061 5.34107 6.74663V6.7475Z" fill="white"/>
</svg>
