<svg width="14" height="14" viewBox="0 0 14 14" fill="none" xmlns="http://www.w3.org/2000/svg">
<g clip-path="url(#clip0_2002_171)">
<path d="M6.99996 12.8333C10.2217 12.8333 12.8333 10.2218 12.8333 7C12.8333 3.77825 10.2217 1.16667 6.99996 1.16667C3.77821 1.16667 1.16663 3.77825 1.16663 7C1.16663 10.2218 3.77821 12.8333 6.99996 12.8333Z" stroke="white" stroke-width="1.16667" stroke-linecap="round" stroke-linejoin="round"/>
<path d="M1.16663 7H12.8333" stroke="white" stroke-width="1.16667" stroke-linecap="round" stroke-linejoin="round"/>
<path d="M6.99996 12.8333C8.28854 12.8333 9.33329 10.2218 9.33329 7C9.33329 3.77825 8.28854 1.16667 6.99996 1.16667C5.71138 1.16667 4.66663 3.77825 4.66663 7C4.66663 10.2218 5.71138 12.8333 6.99996 12.8333Z" stroke="white" stroke-width="1.16667" stroke-linecap="round" stroke-linejoin="round"/>
<path d="M2.87524 2.95808C3.41631 3.50058 4.05925 3.93079 4.76711 4.22401C5.47497 4.51723 6.2338 4.66766 6.99999 4.66667V4.66667C7.76618 4.66766 8.52502 4.51723 9.23288 4.22401C9.94074 3.93079 10.5837 3.50058 11.1247 2.95808" stroke="white" stroke-width="1.16667" stroke-linecap="round" stroke-linejoin="round"/>
<path d="M11.1247 11.0419C10.5837 10.4994 9.94074 10.0692 9.23288 9.77599C8.52502 9.48277 7.76618 9.33234 6.99999 9.33333C6.2338 9.33234 5.47497 9.48277 4.76711 9.77599C4.05925 10.0692 3.41631 10.4994 2.87524 11.0419" stroke="white" stroke-width="1.16667" stroke-linecap="round" stroke-linejoin="round"/>
</g>
<defs>
<clipPath id="clip0_2002_171">
<rect width="14" height="14" fill="white"/>
</clipPath>
</defs>
</svg>
