<svg width="435" height="38" viewBox="0 0 435 38" fill="none" xmlns="http://www.w3.org/2000/svg">
<g clip-path="url(#clip0_4_22)">
<path d="M0 5.66667C0 4.19391 1.19391 3 2.66667 3H29.3333C30.8061 3 32 4.19391 32 5.66667V32.3333C32 33.8061 30.8061 35 29.3333 35H2.66667C1.19391 35 0 33.8061 0 32.3333V5.66667Z" fill="#B9090B"/>
<path d="M9.08495 15.5227H7.34629V9.60268H4.98895V8.09868H11.4423V9.60268H9.08495V15.5227Z" fill="white"/>
<path d="M15.2221 15.6933C14.6675 15.6933 14.1555 15.5974 13.6861 15.4054C13.224 15.2134 12.8222 14.9431 12.4809 14.5947C12.1466 14.2462 11.8835 13.8373 11.6915 13.368C11.5066 12.8916 11.4142 12.3725 11.4142 11.8107C11.4142 11.2489 11.5066 10.7333 11.6915 10.264C11.8835 9.78758 12.1466 9.37514 12.4809 9.02668C12.8222 8.67824 13.224 8.40802 13.6861 8.21602C14.1555 8.02402 14.6675 7.92802 15.2221 7.92802C15.784 7.92802 16.296 8.02402 16.7581 8.21602C17.2275 8.40802 17.6328 8.67824 17.9741 9.02668C18.3155 9.37514 18.5787 9.78758 18.7635 10.264C18.9555 10.7333 19.0515 11.2489 19.0515 11.8107C19.0515 12.3725 18.9555 12.8916 18.7635 13.368C18.5787 13.8373 18.3155 14.2462 17.9741 14.5947C17.6328 14.9431 17.2275 15.2134 16.7581 15.4054C16.296 15.5974 15.784 15.6933 15.2221 15.6933ZM15.2221 14.1573C15.6275 14.1573 15.9867 14.0613 16.2995 13.8693C16.6124 13.6702 16.8541 13.3929 17.0248 13.0373C17.2027 12.6818 17.2915 12.2729 17.2915 11.8107C17.2915 11.3413 17.2027 10.9325 17.0248 10.584C16.8541 10.2285 16.6124 9.95468 16.2995 9.76268C15.9867 9.56358 15.6275 9.46402 15.2221 9.46402C14.824 9.46402 14.4684 9.56358 14.1555 9.76268C13.8497 9.95468 13.608 10.2285 13.4301 10.584C13.2595 10.9325 13.1742 11.3413 13.1742 11.8107C13.1742 12.2729 13.2595 12.6818 13.4301 13.0373C13.608 13.3929 13.8497 13.6702 14.1555 13.8693C14.4684 14.0613 14.824 14.1573 15.2221 14.1573Z" fill="white"/>
<path d="M19.6812 15.5227V8.09868H22.7532C23.3648 8.09868 23.8911 8.20535 24.3319 8.41868C24.7728 8.63201 25.1105 8.93068 25.3452 9.31468C25.5799 9.69868 25.6972 10.1467 25.6972 10.6587C25.6972 11.1707 25.5799 11.6222 25.3452 12.0133C25.1105 12.3973 24.7728 12.696 24.3319 12.9093C23.8911 13.1227 23.3648 13.2293 22.7532 13.2293H21.4199V15.5227H19.6812ZM21.4199 11.7573H22.4972C23.0021 11.7573 23.3684 11.6649 23.5959 11.48C23.8235 11.288 23.9372 11.0142 23.9372 10.6587C23.9372 10.3102 23.8235 10.0436 23.5959 9.85868C23.3684 9.66668 23.0021 9.57068 22.4972 9.57068H21.4199V11.7573Z" fill="white"/>
<path d="M10.5829 30.1893V19.7547L7.48419 20.7067V18.5227L13.0469 16.9547V30.1893H10.5829Z" fill="white"/>
<path d="M19.6232 30.4693C18.5779 30.4693 17.6632 30.1956 16.8792 29.648C16.0952 29.088 15.4855 28.304 15.0499 27.296C14.6268 26.2756 14.4152 25.0747 14.4152 23.6933C14.4152 22.312 14.6268 21.1173 15.0499 20.1093C15.4855 19.0889 16.0952 18.3049 16.8792 17.7573C17.6632 17.1973 18.5779 16.9173 19.6232 16.9173C20.681 16.9173 21.5956 17.1973 22.3672 17.7573C23.1512 18.3049 23.7548 19.0889 24.1779 20.1093C24.6135 21.1173 24.8312 22.312 24.8312 23.6933C24.8312 25.0747 24.6135 26.2756 24.1779 27.296C23.7548 28.304 23.1512 29.088 22.3672 29.648C21.5956 30.1956 20.681 30.4693 19.6232 30.4693ZM19.6232 28.2667C20.4446 28.2667 21.0979 27.8623 21.5832 27.0533C22.081 26.2444 22.3299 25.1244 22.3299 23.6933C22.3299 22.2623 22.081 21.1423 21.5832 20.3333C21.0979 19.5244 20.4446 19.12 19.6232 19.12C18.8019 19.12 18.1423 19.5244 17.6446 20.3333C17.1592 21.1423 16.9166 22.2623 16.9166 23.6933C16.9166 25.1244 17.1592 26.2444 17.6446 27.0533C18.1423 27.8623 18.8019 28.2667 19.6232 28.2667Z" fill="white"/>
</g>
<path d="M59.15 30H55.07V12.69H48.11V9.12H66.11V12.69H59.15V30ZM76.8934 23.64V14.49H80.7034V30H77.0434V28.2C76.5434 28.92 75.9234 29.48 75.1834 29.88C74.4434 30.26 73.6134 30.45 72.6934 30.45C70.8934 30.45 69.5034 29.86 68.5234 28.68C67.5434 27.5 67.0534 25.97 67.0534 24.09V14.49H70.8634V23.64C70.8634 24.64 71.1134 25.46 71.6134 26.1C72.1334 26.72 72.8734 27.03 73.8334 27.03C74.7334 27.03 75.4634 26.73 76.0234 26.13C76.6034 25.51 76.8934 24.68 76.8934 23.64ZM77.1634 12.3C76.5634 12.3 76.0534 12.1 75.6334 11.7C75.2134 11.28 75.0034 10.77 75.0034 10.17C75.0034 9.57 75.2134 9.07 75.6334 8.67C76.0534 8.25 76.5634 8.04 77.1634 8.04C77.7634 8.04 78.2734 8.25 78.6934 8.67C79.1134 9.07 79.3234 9.57 79.3234 10.17C79.3234 10.77 79.1134 11.28 78.6934 11.7C78.2734 12.1 77.7634 12.3 77.1634 12.3ZM70.6234 12.3C70.0234 12.3 69.5134 12.1 69.0934 11.7C68.6734 11.28 68.4634 10.77 68.4634 10.17C68.4634 9.57 68.6734 9.07 69.0934 8.67C69.5134 8.25 70.0234 8.04 70.6234 8.04C71.2234 8.04 71.7334 8.25 72.1534 8.67C72.5734 9.07 72.7834 9.57 72.7834 10.17C72.7834 10.77 72.5734 11.28 72.1534 11.7C71.7334 12.1 71.2234 12.3 70.6234 12.3ZM88.4736 22.35V30H84.6636V14.49H88.3236V17.07C88.8036 16.21 89.4136 15.55 90.1536 15.09C90.9136 14.61 91.7636 14.37 92.7036 14.37H93.3036V17.97H92.5836C91.4236 17.97 90.4436 18.35 89.6436 19.11C88.8636 19.87 88.4736 20.95 88.4736 22.35ZM96.0308 30V8.25H99.8408V20.64L105.631 14.49H110.221L103.351 21.78L110.701 30H105.871L99.8408 23.13V30H96.0308ZM114.738 12.69C114.098 12.69 113.538 12.46 113.058 12C112.598 11.54 112.368 10.98 112.368 10.32C112.368 9.66 112.598 9.1 113.058 8.64C113.538 8.18 114.098 7.95 114.738 7.95C115.378 7.95 115.928 8.18 116.388 8.64C116.868 9.1 117.108 9.66 117.108 10.32C117.108 10.98 116.868 11.54 116.388 12C115.928 12.46 115.378 12.69 114.738 12.69ZM112.818 30V14.49H116.628V30H112.818ZM122.441 36.15L124.991 30L118.901 14.49H123.251L127.091 25.56L130.871 14.49H134.981L126.521 36.15H122.441ZM143.534 30.45C141.934 30.45 140.554 30.12 139.394 29.46C138.254 28.78 137.374 27.82 136.754 26.58C136.134 25.34 135.824 23.87 135.824 22.17C135.824 20.61 136.124 19.22 136.724 18C137.344 16.78 138.224 15.82 139.364 15.12C140.504 14.4 141.864 14.04 143.444 14.04C145.724 14.04 147.474 14.77 148.694 16.23C149.914 17.69 150.524 19.64 150.524 22.08V23.46H139.664C139.984 26.04 141.284 27.33 143.564 27.33C144.304 27.33 144.914 27.21 145.394 26.97C145.894 26.73 146.234 26.42 146.414 26.04H150.254C149.874 27.38 149.084 28.45 147.884 29.25C146.704 30.05 145.254 30.45 143.534 30.45ZM143.414 17.16C142.374 17.16 141.534 17.47 140.894 18.09C140.254 18.69 139.844 19.56 139.664 20.7H146.804C146.764 19.64 146.454 18.79 145.874 18.15C145.314 17.49 144.494 17.16 143.414 17.16ZM152.758 17.22C153.438 16.16 153.948 15.29 154.288 14.61C154.648 13.91 154.898 13.29 155.038 12.75C154.498 12.63 154.058 12.38 153.718 12C153.378 11.6 153.208 11.13 153.208 10.59C153.208 9.97 153.428 9.43 153.868 8.97C154.328 8.49 154.928 8.25 155.668 8.25C156.428 8.25 157.048 8.5 157.528 9C158.028 9.48 158.278 10.16 158.278 11.04C158.278 11.94 158.098 12.86 157.738 13.8C157.378 14.72 156.758 15.86 155.878 17.22H152.758ZM166.542 30.45C165.202 30.45 164.012 30.1 162.972 29.4C161.952 28.7 161.142 27.73 160.542 26.49C159.962 25.25 159.672 23.83 159.672 22.23C159.672 20.61 159.962 19.19 160.542 17.97C161.142 16.73 161.952 15.77 162.972 15.09C164.012 14.39 165.202 14.04 166.542 14.04C167.542 14.04 168.432 14.25 169.212 14.67C169.992 15.07 170.652 15.64 171.192 16.38V8.25H174.972V30H171.312V27.96C170.792 28.74 170.132 29.35 169.332 29.79C168.532 30.23 167.602 30.45 166.542 30.45ZM167.442 27.06C168.602 27.06 169.542 26.62 170.262 25.74C171.002 24.86 171.372 23.69 171.372 22.23C171.372 20.77 171.002 19.61 170.262 18.75C169.542 17.87 168.602 17.43 167.442 17.43C166.302 17.43 165.362 17.86 164.622 18.72C163.902 19.58 163.542 20.75 163.542 22.23C163.542 23.69 163.902 24.86 164.622 25.74C165.362 26.62 166.302 27.06 167.442 27.06ZM185.751 30.45C184.151 30.45 182.771 30.12 181.611 29.46C180.471 28.78 179.591 27.82 178.971 26.58C178.351 25.34 178.041 23.87 178.041 22.17C178.041 20.61 178.341 19.22 178.941 18C179.561 16.78 180.441 15.82 181.581 15.12C182.721 14.4 184.081 14.04 185.661 14.04C187.941 14.04 189.691 14.77 190.911 16.23C192.131 17.69 192.741 19.64 192.741 22.08V23.46H181.881C182.201 26.04 183.501 27.33 185.781 27.33C186.521 27.33 187.131 27.21 187.611 26.97C188.111 26.73 188.451 26.42 188.631 26.04H192.471C192.091 27.38 191.301 28.45 190.101 29.25C188.921 30.05 187.471 30.45 185.751 30.45ZM185.631 17.16C184.591 17.16 183.751 17.47 183.111 18.09C182.471 18.69 182.061 19.56 181.881 20.7H189.021C188.981 19.64 188.671 18.79 188.091 18.15C187.531 17.49 186.711 17.16 185.631 17.16ZM203.032 30V9.12H212.062C214.262 9.12 216.012 9.61 217.312 10.59C218.612 11.57 219.262 12.95 219.262 14.73C219.262 16.83 218.202 18.29 216.082 19.11C217.402 19.49 218.382 20.11 219.022 20.97C219.682 21.83 220.012 22.85 220.012 24.03C220.012 25.25 219.702 26.31 219.082 27.21C218.462 28.09 217.582 28.78 216.442 29.28C215.302 29.76 213.962 30 212.422 30H203.032ZM211.582 12.57H207.052V17.55H211.582C212.742 17.55 213.642 17.35 214.282 16.95C214.922 16.53 215.242 15.9 215.242 15.06C215.242 13.4 214.022 12.57 211.582 12.57ZM212.092 21H207.052V26.55H212.092C214.652 26.55 215.932 25.62 215.932 23.76C215.932 22.86 215.602 22.18 214.942 21.72C214.282 21.24 213.332 21 212.092 21ZM232.958 23.64V14.49H236.768V30H233.108V28.2C232.608 28.92 231.988 29.48 231.248 29.88C230.508 30.26 229.678 30.45 228.758 30.45C226.958 30.45 225.568 29.86 224.588 28.68C223.608 27.5 223.118 25.97 223.118 24.09V14.49H226.928V23.64C226.928 24.64 227.178 25.46 227.678 26.1C228.198 26.72 228.938 27.03 229.898 27.03C230.798 27.03 231.528 26.73 232.088 26.13C232.668 25.51 232.958 24.68 232.958 23.64ZM246.668 29.94C245.328 29.94 244.138 29.6 243.098 28.92C242.078 28.24 241.278 27.3 240.698 26.1C240.118 24.9 239.828 23.53 239.828 21.99C239.828 20.45 240.118 19.08 240.698 17.88C241.278 16.68 242.078 15.74 243.098 15.06C244.138 14.38 245.328 14.04 246.668 14.04C247.728 14.04 248.658 14.26 249.458 14.7C250.258 15.14 250.928 15.74 251.468 16.5V14.49H255.128V29.4C255.128 31.7 254.468 33.47 253.148 34.71C251.848 35.97 250.058 36.6 247.778 36.6C245.818 36.6 244.178 36.15 242.858 35.25C241.538 34.35 240.718 33.2 240.398 31.8H244.358C244.618 32.24 245.028 32.6 245.588 32.88C246.148 33.16 246.848 33.3 247.688 33.3C248.868 33.3 249.768 33.01 250.388 32.43C251.028 31.85 251.348 30.94 251.348 29.7V27.63C250.808 28.35 250.138 28.92 249.338 29.34C248.558 29.74 247.668 29.94 246.668 29.94ZM247.568 26.55C248.728 26.55 249.678 26.13 250.418 25.29C251.158 24.43 251.528 23.32 251.528 21.96C251.528 20.6 251.158 19.5 250.418 18.66C249.678 17.82 248.728 17.4 247.568 17.4C246.448 17.4 245.518 17.82 244.778 18.66C244.058 19.5 243.698 20.6 243.698 21.96C243.698 23.32 244.058 24.43 244.778 25.29C245.518 26.13 246.448 26.55 247.568 26.55ZM268.817 23.64V14.49H272.627V30H268.967V28.2C268.467 28.92 267.847 29.48 267.107 29.88C266.367 30.26 265.537 30.45 264.617 30.45C262.817 30.45 261.427 29.86 260.447 28.68C259.467 27.5 258.977 25.97 258.977 24.09V14.49H262.787V23.64C262.787 24.64 263.037 25.46 263.537 26.1C264.057 26.72 264.797 27.03 265.757 27.03C266.657 27.03 267.387 26.73 267.947 26.13C268.527 25.51 268.817 24.68 268.817 23.64ZM269.087 12.3C268.487 12.3 267.977 12.1 267.557 11.7C267.137 11.28 266.927 10.77 266.927 10.17C266.927 9.57 267.137 9.07 267.557 8.67C267.977 8.25 268.487 8.04 269.087 8.04C269.687 8.04 270.197 8.25 270.617 8.67C271.037 9.07 271.247 9.57 271.247 10.17C271.247 10.77 271.037 11.28 270.617 11.7C270.197 12.1 269.687 12.3 269.087 12.3ZM262.547 12.3C261.947 12.3 261.437 12.1 261.017 11.7C260.597 11.28 260.387 10.77 260.387 10.17C260.387 9.57 260.597 9.07 261.017 8.67C261.437 8.25 261.947 8.04 262.547 8.04C263.147 8.04 263.657 8.25 264.077 8.67C264.497 9.07 264.707 9.57 264.707 10.17C264.707 10.77 264.497 11.28 264.077 11.7C263.657 12.1 263.147 12.3 262.547 12.3ZM280.397 20.88V30H276.587V14.49H280.247V16.32C281.367 14.8 282.927 14.04 284.927 14.04C286.607 14.04 287.937 14.62 288.917 15.78C289.897 16.94 290.387 18.47 290.387 20.37V30H286.577V20.94C286.577 19.88 286.327 19.04 285.827 18.42C285.347 17.78 284.607 17.46 283.607 17.46C282.707 17.46 281.947 17.77 281.327 18.39C280.707 18.99 280.397 19.82 280.397 20.88ZM309.782 30V25.26H299.672V22.23L309.782 9.12H313.622V21.96H316.682V25.26H313.622V30H309.782ZM303.752 21.96H309.782V14.19L303.752 21.96ZM326.518 30V9.12H330.478L340.828 23.76V9.12H344.788V30H340.828L330.478 15.36V30H326.518ZM358.846 23.64V14.49H362.656V30H358.996V28.2C358.496 28.92 357.876 29.48 357.136 29.88C356.396 30.26 355.566 30.45 354.646 30.45C352.846 30.45 351.456 29.86 350.476 28.68C349.496 27.5 349.006 25.97 349.006 24.09V14.49H352.816V23.64C352.816 24.64 353.066 25.46 353.566 26.1C354.086 26.72 354.826 27.03 355.786 27.03C356.686 27.03 357.416 26.73 357.976 26.13C358.556 25.51 358.846 24.68 358.846 23.64ZM366.617 30V14.49H370.277V16.17C370.777 15.49 371.377 14.97 372.077 14.61C372.797 14.23 373.597 14.04 374.477 14.04C375.397 14.04 376.217 14.27 376.937 14.73C377.657 15.17 378.237 15.79 378.677 16.59C379.237 15.77 379.937 15.14 380.777 14.7C381.637 14.26 382.547 14.04 383.507 14.04C385.087 14.04 386.347 14.6 387.287 15.72C388.227 16.82 388.697 18.33 388.697 20.25V30H384.887V20.73C384.887 19.71 384.667 18.91 384.227 18.33C383.787 17.75 383.157 17.46 382.337 17.46C381.537 17.46 380.867 17.75 380.327 18.33C379.807 18.91 379.547 19.71 379.547 20.73V30H375.737V20.73C375.737 19.71 375.517 18.91 375.077 18.33C374.637 17.75 374.007 17.46 373.187 17.46C372.387 17.46 371.727 17.75 371.207 18.33C370.687 18.91 370.427 19.71 370.427 20.73V30H366.617ZM396.864 30.45C395.244 30.45 393.944 30.01 392.964 29.13C392.004 28.23 391.524 27.04 391.524 25.56C391.524 23.96 392.104 22.71 393.264 21.81C394.424 20.91 396.044 20.46 398.124 20.46H401.274V19.89C401.274 18.93 401.014 18.24 400.494 17.82C399.974 17.38 399.274 17.16 398.394 17.16C397.634 17.16 397.014 17.31 396.534 17.61C396.054 17.91 395.754 18.26 395.634 18.66H391.974C392.234 17.34 392.934 16.24 394.074 15.36C395.214 14.48 396.694 14.04 398.514 14.04C400.534 14.04 402.124 14.55 403.284 15.57C404.444 16.57 405.024 18.14 405.024 20.28V30H401.514V28.08C401.014 28.9 400.334 29.5 399.474 29.88C398.634 30.26 397.764 30.45 396.864 30.45ZM397.824 27.39C398.364 27.39 398.894 27.27 399.414 27.03C399.954 26.79 400.394 26.43 400.734 25.95C401.094 25.47 401.274 24.88 401.274 24.18V23.19H398.304C397.324 23.19 396.564 23.38 396.024 23.76C395.504 24.12 395.244 24.64 395.244 25.32C395.244 26 395.484 26.52 395.964 26.88C396.444 27.22 397.064 27.39 397.824 27.39ZM412.673 22.35V30H408.863V14.49H412.523V17.07C413.003 16.21 413.613 15.55 414.353 15.09C415.113 14.61 415.963 14.37 416.903 14.37H417.503V17.97H416.783C415.623 17.97 414.643 18.35 413.843 19.11C413.063 19.87 412.673 20.95 412.673 22.35ZM424.257 30.45C422.637 30.45 421.337 30.01 420.357 29.13C419.397 28.23 418.917 27.04 418.917 25.56C418.917 23.96 419.497 22.71 420.657 21.81C421.817 20.91 423.437 20.46 425.517 20.46H428.667V19.89C428.667 18.93 428.407 18.24 427.887 17.82C427.367 17.38 426.667 17.16 425.787 17.16C425.027 17.16 424.407 17.31 423.927 17.61C423.447 17.91 423.147 18.26 423.027 18.66H419.367C419.627 17.34 420.327 16.24 421.467 15.36C422.607 14.48 424.087 14.04 425.907 14.04C427.927 14.04 429.517 14.55 430.677 15.57C431.837 16.57 432.417 18.14 432.417 20.28V30H428.907V28.08C428.407 28.9 427.727 29.5 426.867 29.88C426.027 30.26 425.157 30.45 424.257 30.45ZM425.217 27.39C425.757 27.39 426.287 27.27 426.807 27.03C427.347 26.79 427.787 26.43 428.127 25.95C428.487 25.47 428.667 24.88 428.667 24.18V23.19H425.697C424.717 23.19 423.957 23.38 423.417 23.76C422.897 24.12 422.637 24.64 422.637 25.32C422.637 26 422.877 26.52 423.357 26.88C423.837 27.22 424.457 27.39 425.217 27.39Z" fill="white"/>
<defs>
<clipPath id="clip0_4_22">
<rect width="32" height="32" fill="white" transform="translate(0 3)"/>
</clipPath>
</defs>
</svg>
